<?xml version="1.0" standalone="no"?>
<!DOCTYPE svg PUBLIC "-//W3C//DTD SVG 20010904//EN"
 "http://www.w3.org/TR/2001/REC-SVG-20010904/DTD/svg10.dtd">
<svg version="1.0" xmlns="http://www.w3.org/2000/svg"
 width="225.000000pt" height="225.000000pt" viewBox="0 0 225.000000 225.000000"
 preserveAspectRatio="xMidYMid meet">

<g transform="translate(0.000000,225.000000) scale(0.100000,-0.100000)"
fill="#000000" stroke="none">
<path d="M975 2239 c-169 -21 -382 -107 -516 -208 -144 -109 -261 -249 -339
-406 -312 -629 22 -1385 698 -1581 248 -72 535 -49 776 60 226 103 434 307
541 531 268 557 41 1222 -510 1495 -204 101 -422 137 -650 109z m301 -822
c186 -107 354 -208 372 -225 42 -39 44 -89 5 -131 -23 -23 -583 -351 -711
-416 -41 -20 -81 -13 -116 22 l-26 26 0 429 c0 274 4 436 10 448 16 29 61 51
96 46 16 -2 183 -92 370 -199z"/>
</g>
</svg>
